**ABCDEFGHIJKLMNOPQRSTUVWXYZabcdefghijklmnopqrstuvwxyz**************************
**PARASOLID !"#$%&'()*+,-./:;<=>?@[\]^_`{|}~0123456789**************************
**PART1;
MC=AMD64;
MC_MODEL=Intel64 Family 6 Model 158 Stepping 9, GenuineIntel;
MC_ID=unknown;
OS=Windows_NT;
OS_RELEASE=unknown;
FRU=Parasolid Version 30.0, build 298, 12-15-2017;
APPL=SOLIDWORKS 2018-2018134;
SITE=;
USER=unknown;
FORMAT=text;
GUISE=transmit;
KEY=clip;
FILE=clip.x_t;
DATE=Mon May 25 12:37:02 2020;
**PART2;
SCH=SCH_3000298_30000;
USFLD_SIZE=0;
**PART3;
**END_OF_HEADER*****************************************************************
T51 : TRANSMIT FILE created by modeller version 300029823 SCH_3000298_30000_1300
6205 0 12 33 CCCCCCI4 mesh1006 0 I8 polyline1008 0 CCCCCCCDI5 owner1040 0 CCCCCC
I13 boundary_mesh1006 0 I17 boundary_polyline1008 0 CCCA16 index_map_offset0 0 1
 dA9 index_map82 0 A17 node_id_index_map82 0 A20 schema_embedding_map82 0 A5 chi
ld12 0 A14 lowest_node_id0 0 1 dZ1 1301 2 3 0 0 0 0 0 0 1e3 1e-8 0 4 0 1 0 1 1 5
 6 7 8 0 0 9 10 11 0 0 0 0 0 0 81 255 2 2 1086 12 1 0 0 0 0 13 0 70 11 CI9 list_
type0 0 1 uI10 notransmit0 0 1 lCCCDCCDI12 finger_index0 0 1 dI12 finger_block10
12 0 CZ3 0 4 T1 0 0 3 20 1 14 14 13 255 5 284 0 1 0 15 0 0 16 0 50 255 6 1031 0
 17 18 0 0 --.004355393218813455 .0015 .00785539321881344 .5 -.70710678118655 -.
5 .707106781186546 0 .707106781186549 30 255 7 1034 0 19 20 0 0 +-.0056410724869
4945 .001668304365212095 .00633169563478789 -.281084637714822 -.678598344545844
 .678598344545849 29 255 8 981 0 11 21 0 -.006125 5e-4 .0075 19 8 CCCCCCCA5 owne
r12 0 Z9 92 0 1 16 0 22 V0 16 255 10 992 0 ?23 0 24 25 0 0 1 18 255 11 979 0 23
 0 26 8 ?1 17 255 23 0 27 28 29 11 30 10 0 31 +18 26 976 0 32 11 33 21 ?1 17 32
 0 34 35 31 26 36 37 0 38 +18 33 968 0 39 26 40 41 ?1 29 21 978 0 26 41 8 -.0081
25 5e-4 .0055 29 41 970 0 33 42 21 .006125 5e-4 .0075 29 42 962 0 40 43 41 .0081
25 5e-4 .0055 18 40 960 0 44 33 45 42 ?1 29 43 950 0 45 46 42 .0057107864376269
 .0015 .0065 18 45 948 0 47 40 48 43 ?1 29 46 947 0 48 49 43 -.0057107864376269
 .0015 .0065 18 48 945 0 50 45 51 46 ?1 29 49 944 0 51 52 46 .008125 .0015 .0040
8578643762688 18 51 942 0 53 48 54 49 ?1 29 52 941 0 54 55 49 -.008125 .0015 .00
408578643762688 18 54 939 0 56 51 57 52 ?1 29 55 831 0 57 58 52 -.008125 -.0015
 .0055 18 57 829 0 59 54 60 55 ?1 29 58 828 0 60 61 55 .008125 -.0015 .0055 18 6
0 826 0 62 57 63 58 ?1 29 61 815 0 63 64 58 .006125 -.0015 .0075 18 63 813 0 65
 60 66 61 ?1 29 64 812 0 66 67 61 -.006125 -.0015 .0075 18 66 810 0 28 63 68 64
 ?1 29 67 671 0 68 69 64 .008125 .0015 .0035 18 68 669 0 70 66 71 67 ?1 29 69 66
8 0 71 72 67 -.008125 .0015 .0035 18 71 666 0 73 68 74 69 ?1 29 72 665 0 74 75 6
9 .008125 -.0015 .0035 18 74 663 0 76 71 77 72 ?1 29 75 517 0 77 78 72 -.011496
 .00440056886797165 .0035 18 77 515 0 79 74 80 75 ?1 29 78 377 0 80 81 75 .0115
 -.0015 0 18 80 375 0 82 77 83 78 ?1 29 81 213 0 84 85 78 -.01115606204830728 .0
04400568867971645 0 18 84 188 0 86 87 88 81 ?1 29 85 214 0 88 89 81 -.0096482315
5059847 .002650555385115235 0 18 88 189 0 90 84 91 85 ?1 29 89 215 0 91 92 85 -.
0104 .0023 0 18 91 190 0 93 88 94 89 ?1 29 92 216 0 94 95 89 -.0104 .0015 0 18 9
4 191 0 96 91 97 92 ?1 29 95 217 0 97 98 92 .0104 .0015 0 18 97 192 0 99 94 100
 95 ?1 29 98 218 0 100 101 95 .0104 .0023 0 18 100 193 0 102 97 103 98 ?1 29 101
 219 0 103 104 98 .00964823155059847 .002650555385115235 0 18 103 194 0 105 100
 106 101 ?1 29 104 220 0 106 107 101 .01115606204830726 .004400568867971645 0 18
 106 195 0 108 103 109 104 ?1 29 107 86 0 83 110 104 -.01115606204830728 .004400
568867971645 .0035 18 83 84 0 111 80 112 107 ?1 29 110 83 0 112 113 107 -.009648
23155059847 .002650555385115235 .0035 18 112 81 0 114 83 115 110 ?1 29 113 80 0
 115 116 110 -.0104 .0023 .0035 18 115 78 0 117 112 118 113 ?1 29 116 77 0 118 1
19 113 -.0104 .0015 .0035 18 118 75 0 120 115 121 116 ?1 29 119 74 0 121 122 116
 .0104 .0015 .0035 18 121 72 0 123 118 124 119 ?1 29 122 71 0 124 125 119 .0104
 .0023 .0035 18 124 69 0 126 121 127 122 ?1 29 125 68 0 127 128 122 .00964823155
059847 .002650555385115235 .0035 18 127 66 0 129 124 87 125 ?1 29 128 65 0 87 13
0 125 .01115606204830726 .004400568867971645 .0035 18 87 63 0 131 127 84 128 ?1
 29 130 491 0 109 132 128 .0115 -.0015 .0035 18 109 437 0 133 106 134 130 ?1 29
 132 492 0 134 135 130 .0115 .004400568867971645 .0035 18 134 439 0 136 109 137
 132 ?1 29 135 493 0 137 138 132 .0115 .004400568867971645 0 18 137 441 0 139 13
4 140 135 ?1 29 138 632 0 140 141 135 -.011496 -.0015 .0035 18 140 579 0 142 137
 143 138 ?1 29 141 633 0 143 144 138 -.011496 -.0015 0 18 143 581 0 145 140 146
 141 ?1 29 144 634 0 146 147 141 -.011496 .00440056886797165 0 18 146 583 0 148
 143 149 144 ?1 29 147 764 0 149 0 144 -.008125 -.0015 .0035 18 149 715 0 150 14
6 0 147 ?1 17 150 0 151 152 59 149 153 154 0 155 +15 255 151 544 0 156 157 0 17
 152 0 151 158 150 140 155 159 0 0 -17 59 0 151 150 156 57 160 161 0 153 +17 153
 0 162 38 163 57 150 154 0 35 -16 154 830 0 ?150 164 165 166 0 0 1 17 155 0 167
 168 169 149 152 159 0 163 +15 167 673 0 168 170 0 17 168 0 167 171 155 71 163 1
72 0 173 -17 169 0 167 155 174 140 79 175 0 152 -16 159 534 0 ?155 176 177 178 1
77 177 1 17 163 0 162 153 73 149 168 172 0 0 +15 162 732 0 38 179 0 17 73 0 162
 163 56 71 180 164 0 168 +16 172 693 0 ?163 181 182 183 0 0 1 16 181 811 0 ?184
 165 172 185 0 0 1 16 182 685 0 ?186 172 19 187 0 0 1 30 183 756 0 172 187 188 0
 +-.008125 .0015 .0035 0 -1 0 30 187 758 0 182 185 183 0 +.008125 .0015 .0035 0
 1 0 30 188 754 0 165 183 166 0 +.008125 -.0015 .0075 0 0 -1 16 165 827 0 ?76 15
4 181 188 0 0 1 30 166 753 0 154 188 189 0 +-.008125 -.0015 .0075 0 0 -1 30 189
 752 0 164 166 190 0 +-.008125 .0015 .0075 0 0 -1 16 164 940 0 ?73 191 154 189 0
 0 1 30 190 751 0 191 189 192 0 +.008125 .0015 .0075 0 0 -1 16 191 943 0 ?70 193
 164 190 0 0 1 30 192 626 0 193 190 194 0 +-.011496 .00440056886797165 .0035 0 0
 -1 16 193 549 0 ?148 195 191 192 0 0 1 30 194 625 0 195 192 196 0 +-.011496 .00
440056886797165 0 -293992581866624e-30 -1 0 16 195 561 0 ?145 197 193 194 0 0 1
 30 196 624 0 197 194 198 0 +-.011496 -.0015 0 0 0 1 16 197 557 0 ?142 175 195 1
96 0 0 1 30 198 623 0 175 196 199 0 +-.011496 -.0015 .0035 293992581866624e-30 1
 0 16 175 553 0 ?79 200 197 198 0 0 1 30 199 486 0 200 198 201 0 +.0115 -.0015 .
0035 0 0 -1 16 200 409 0 ?202 203 175 199 0 0 1 30 201 485 0 203 199 204 0 +.011
5 -.0015 0 0 1 0 16 203 421 0 ?139 205 200 201 0 0 1 30 204 484 0 205 201 206 0
 +.0115 .004400568867971645 0 0 0 1 16 205 417 0 ?136 207 203 204 0 0 1 30 206 4
83 0 207 204 178 0 +.0115 .004400568867971645 .0035 0 -1 0 16 207 413 0 ?208 209
 205 206 0 0 1 30 178 10 0 159 206 210 0 +0 -.0015 .0035 1 0 0 30 210 19 0 176 1
78 211 0 +0 .004400568867971645 .0035 1 0 0 16 176 18 0 ?212 213 159 210 0 0 1 3
0 211 23 0 213 210 214 0 +.004226697608807575 -.003641768261551075 .0035 -.65274
0475198616 -.757581594310135 0 16 213 22 0 ?129 215 176 211 0 0 1 30 214 27 0 21
5 211 216 0 +.00273845553921676 .00587263685535817 .0035 .906307787036653 -.4226
182617406935 0 16 215 26 0 ?126 217 213 214 0 0 1 30 216 31 0 217 214 218 0 +.01
04 0 .0035 0 -1 0 16 217 30 0 ?219 220 215 216 0 0 1 30 218 35 0 221 216 222 0 +
0 .0015 .0035 1 0 0 16 221 34 0 ?173 223 220 218 220 220 1 30 222 39 0 223 218 2
24 0 +-.0104 0 .0035 0 -1 0 16 223 38 0 ?225 226 221 222 0 0 1 30 224 43 0 226 2
22 227 0 +-.00273845553921679 .00587263685535819 .0035 -.906307787036651 -.42261
8261740697 0 16 226 42 0 ?228 229 223 224 0 0 1 30 227 47 0 229 224 230 0 +-.004
22669760880758 -.003641768261551075 .0035 .652740475198616 -.757581594310135 0 1
6 229 46 0 ?231 232 226 227 0 0 1 30 230 51 0 232 227 233 0 +363539716596383e-31
 .004400568867971555 .0035 -1 82611982110385e-28 0 16 232 50 0 ?174 234 229 230
 0 0 1 30 233 210 0 209 230 235 0 +0 -.0015 0 1 0 0 16 209 524 0 ?82 236 207 233
 0 0 1 30 235 208 0 236 233 237 0 +0 .004400568867971645 0 1 0 0 16 236 165 0 ?2
38 239 209 235 0 0 1 30 237 207 0 239 235 240 0 +.004226697608807575 -.003641768
261551075 0 -.652740475198616 -.757581594310135 0 16 239 160 0 ?105 241 236 237
 0 0 1 30 240 206 0 241 237 242 0 +.00273845553921676 .00587263685535817 0 .9063
07787036653 -.4226182617406935 0 16 241 155 0 ?102 243 239 240 0 0 1 30 242 205
 0 243 240 244 0 +.0104 0 0 0 -1 0 16 243 150 0 ?245 246 241 242 0 0 1 30 244 20
4 0 246 242 247 0 +0 .0015 0 1 0 0 16 246 145 0 ?248 249 243 244 0 0 1 30 247 20
3 0 249 244 250 0 +-.0104 0 0 0 -1 0 16 249 140 0 ?251 252 246 247 0 0 1 30 250
 202 0 252 247 253 0 +-.00273845553921679 .00587263685535819 0 -.906307787036651
 -.422618261740697 0 16 252 135 0 ?254 255 249 250 0 0 1 30 253 201 0 255 250 25
6 0 +-.00422669760880758 -.003641768261551075 0 .652740475198616 -.7575815943101
35 0 16 255 130 0 ?257 258 252 253 0 0 1 30 256 200 0 258 253 259 0 +36353971659
6383e-31 .004400568867971555 0 -1 82611982110385e-28 0 16 258 125 0 ?260 177 255
 256 0 0 1 30 259 273 0 234 256 261 0 +-.01115606204830728 .004400568867971645 .
0035 0 0 -1 16 234 225 0 ?86 262 232 259 0 0 1 30 261 274 0 262 259 263 0 +-.009
64823155059847 .002650555385115235 .0035 0 0 -1 16 262 226 0 ?90 264 234 261 0 0
 1 30 263 275 0 264 261 265 0 +-.0104 .0023 .0035 0 0 -1 16 264 227 0 ?93 266 26
2 263 0 0 1 30 265 276 0 266 263 267 0 +-.0104 .0015 .0035 0 0 -1 16 266 228 0 ?
96 268 264 265 0 0 1 30 267 277 0 268 265 269 0 +.0104 .0015 .0035 0 0 -1 16 268
 229 0 ?99 270 266 267 0 0 1 30 269 278 0 270 267 271 0 +.0104 .0023 .0035 0 0 -
1 16 270 230 0 ?272 273 268 269 0 0 1 30 271 279 0 273 269 274 0 +.0096482315505
9847 .002650555385115235 .0035 0 0 -1 16 273 231 0 ?275 276 270 271 0 0 1 30 274
 280 0 276 271 277 0 +.01115606204830726 .004400568867971645 .0035 0 0 -1 16 276
 232 0 ?108 278 273 274 0 0 1 30 277 818 0 278 274 279 0 +.006125 .0015 .0075 0
 1 0 16 278 816 0 ?29 280 276 277 0 0 1 30 279 823 0 280 277 281 0 +-.006125 -.0
015 .0075 0 -1 0 16 280 980 0 ?28 282 278 279 0 0 1 30 281 834 0 282 279 283 0 +
.006125 -.0015 .0075 -.707106781186546 0 .707106781186549 16 282 832 0 ?65 161 2
80 281 0 0 1 30 283 840 0 161 281 284 0 +-.006125 -.0015 .0075 -.707106781186546
 0 -.707106781186549 16 161 838 0 ?59 285 282 283 0 0 1 30 284 849 0 285 283 286
 0 +-.008125 .0015 .0055 0 1 0 16 285 847 0 ?38 287 161 284 0 0 1 30 286 869 0 2
87 284 288 0 +.008125 -.0015 .0055 0 -1 0 16 287 961 0 ?62 289 285 286 0 0 1 30
 288 951 0 289 286 290 0 +0 .0015 .0065 1 0 0 16 289 949 0 ?47 291 287 288 0 0 1
 30 290 953 0 291 288 292 0 +-.004355393218813455 .0015 .00785539321881344 .7071
06781186546 0 .707106781186549 16 291 952 0 ?50 293 289 290 0 0 1 30 292 956 0 2
93 290 294 0 +.004355393218813455 .0015 .00785539321881344 .707106781186546 0 -.
707106781186549 16 293 954 0 ?295 296 291 292 0 0 1 30 294 965 0 296 292 297 0 -
.008125 -.0002770096782558705 .0065988576250846 0 .577350269189622 -.81649658092
7729 16 296 963 0 ?44 298 293 294 0 0 1 30 297 973 0 298 294 299 0 +.006125 5e-4
 .0075 -.707106781186546 0 .707106781186549 16 298 971 0 ?39 37 296 297 0 0 1 30
 299 984 0 37 297 300 0 +-.006125 5e-4 .0075 -.707106781186546 0 -.7071067811865
49 16 37 982 0 ?32 24 298 299 0 0 1 30 300 989 0 24 299 25 0 --.008125 -.0002770
096782558705 .0065988576250846 0 -.577350269189622 .816496580927729 16 24 987 0
 ?56 10 37 300 0 0 1 30 25 994 0 10 300 20 0 +0 5e-4 .0075 -1 0 0 30 20 1035 0 3
01 25 7 0 -.00564107248694945 .001668304365212095 .00633169563478789 -.281084637
714822 .678598344545844 -.678598344545849 16 301 1020 0 ?302 19 0 20 0 0 1 17 30
2 0 303 304 305 33 306 301 0 0 +16 19 1017 0 ?307 182 301 7 0 0 1 17 307 0 308 3
0 309 11 310 19 0 0 +15 308 1008 0 307 311 0 17 30 0 308 306 307 33 23 10 0 302
 -17 309 0 308 307 306 48 47 289 0 0 -17 310 0 312 313 36 48 307 19 0 309 -15 31
2 1006 0 314 17 0 17 313 0 312 314 310 54 50 291 0 0 -17 36 0 312 310 314 11 32
 37 0 307 -17 314 0 312 36 313 26 56 24 0 0 -17 56 0 162 73 38 54 314 24 0 180 +
17 38 0 162 56 153 26 35 285 0 314 +17 180 0 315 50 173 54 73 164 0 313 -15 315
 244 0 47 316 0 17 50 0 315 47 180 48 313 291 0 310 +17 173 0 315 180 120 71 171
 221 0 0 +17 120 0 315 173 317 118 96 266 0 171 -17 171 0 167 318 168 118 173 22
1 0 225 -17 318 0 167 319 171 115 225 223 0 228 -17 225 0 320 96 117 118 318 223
 0 0 +15 320 242 0 321 322 0 17 96 0 320 321 225 94 120 266 0 317 +17 117 0 320
 225 321 115 93 264 0 318 -17 321 0 320 117 96 91 251 249 0 254 -17 93 0 323 324
 228 91 117 264 0 321 +15 323 240 0 324 325 0 17 324 0 323 114 93 88 254 252 0 2
57 -17 228 0 323 93 114 115 319 226 0 0 +17 114 0 323 228 324 112 90 262 0 319 -
17 319 0 167 326 318 112 228 226 0 231 -17 326 0 167 174 319 83 231 229 0 0 -17
 231 0 327 90 111 112 326 229 0 0 +15 327 238 0 328 329 0 17 90 0 327 328 231 88
 114 262 0 324 +17 111 0 327 231 328 83 86 234 0 330 -17 328 0 327 111 90 84 257
 255 0 0 -17 86 0 331 260 330 84 111 234 0 332 +17 330 0 331 86 333 83 174 232 0
 326 -15 331 519 0 333 334 0 17 333 0 331 330 260 77 148 193 0 174 -17 174 0 167
 169 326 77 330 232 0 0 +17 260 0 331 333 86 146 332 258 0 0 +17 148 0 335 145 7
9 146 333 193 0 336 +15 335 603 0 148 337 0 17 145 0 335 142 148 143 336 195 0 1
58 +17 79 0 335 148 142 77 169 175 0 333 +17 336 0 338 332 339 146 145 195 0 260
 -15 338 527 0 336 340 0 17 332 0 338 257 336 84 260 258 0 328 -17 339 0 338 336
 341 143 82 209 0 0 -17 341 0 338 339 238 80 139 203 0 0 -17 82 0 151 342 158 80
 339 209 0 202 +17 342 0 151 343 82 109 202 200 0 0 -17 158 0 151 82 152 143 142
 197 0 339 -17 202 0 344 139 208 80 342 200 0 341 +15 344 463 0 202 345 0 17 139
 0 344 136 202 137 341 203 0 346 +17 208 0 344 202 136 109 347 207 0 342 +17 136
 0 344 208 139 134 346 205 0 347 +17 347 0 348 349 133 134 208 207 0 212 -15 348
 679 0 350 15 0 17 349 0 348 129 347 87 212 176 0 0 -17 133 0 348 347 350 109 34
3 177 0 208 +17 212 0 351 346 131 134 349 176 0 0 +15 351 252 0 212 352 0 17 346
 0 351 353 212 137 136 205 0 238 -17 131 0 351 212 353 87 108 276 0 354 -17 353
 0 351 131 346 106 238 236 0 0 -17 108 0 355 105 354 106 131 276 0 356 +17 354 0
 355 108 357 87 129 213 0 349 -15 355 250 0 105 358 0 17 357 0 355 354 105 127 2
75 273 0 359 -17 129 0 348 126 349 127 354 213 0 357 +17 126 0 348 219 129 124 3
59 215 0 360 +17 219 0 348 361 126 121 362 217 0 363 +17 359 0 364 275 360 127 1
26 215 0 0 -17 360 0 364 359 102 124 272 270 0 362 -15 364 248 0 102 365 0 17 10
2 0 364 360 275 100 366 241 0 272 +17 272 0 367 245 362 100 360 270 0 368 +17 36
2 0 367 272 363 124 219 217 0 0 -15 367 246 0 245 369 0 17 363 0 367 362 245 121
 99 268 0 0 -17 245 0 367 363 272 97 368 243 0 248 +17 99 0 315 317 123 97 363 2
68 0 245 +17 317 0 315 120 99 94 248 246 0 251 -17 123 0 315 99 70 121 361 220 0
 219 +17 70 0 315 123 295 68 370 191 0 361 +17 361 0 348 350 219 68 123 220 0 18
6 -16 220 670 0 ?123 221 217 218 221 221 1 17 350 0 348 133 361 74 186 182 0 343
 -17 186 0 371 370 76 68 350 182 0 0 +15 371 724 0 370 372 0 17 370 0 371 44 186
 51 70 191 0 0 -17 76 0 371 186 62 74 373 165 0 350 +17 62 0 371 76 44 60 374 28
7 0 373 +17 373 0 151 65 343 60 76 165 0 375 -17 65 0 151 156 373 63 375 282 0 1
84 +17 343 0 151 373 342 74 133 177 0 0 -17 375 0 376 374 377 60 65 282 0 0 -15
 376 907 0 374 378 0 17 374 0 376 39 375 40 62 287 0 304 -17 377 0 376 375 39 63
 29 278 0 0 -17 39 0 376 377 374 33 304 298 0 29 +17 29 0 27 23 184 33 377 278 0
 30 +15 27 739 0 29 379 0 17 184 0 27 29 28 63 156 181 0 377 +17 28 0 27 184 23
 66 31 280 0 160 +17 156 0 151 59 65 66 184 181 0 0 -17 31 0 34 32 160 11 28 280
 0 36 -17 160 0 34 31 35 66 59 161 0 156 -15 34 886 0 31 380 0 17 35 0 34 160 32
 57 38 285 0 0 -14 255 380 885 381 ?378 379 34 5 382 +0 0 378 379 22 81 1 381 12
79 383 380 384 0 0 385 386 14 378 906 385 ?17 380 376 5 387 +0 0 17 380 22 14 37
9 737 388 ?380 179 27 5 389 +0 0 380 179 22 50 382 897 0 380 390 387 0 +-.006125
 0 .0075 -.707106781186549 0 .707106781186546 0 1 0 13 22 93 0 0 0 0 0 0 9 15 14
 15 674 391 ?157 0 348 5 392 +170 170 157 0 22 81 1 391 1282 383 15 393 0 388 39
4 395 14 157 546 394 ?170 15 151 5 390 -0 0 170 15 22 50 392 2 0 170 396 397 0 +
0 0 .0035 0 0 1 1 0 0 14 170 539 398 ?340 157 167 5 392 +15 15 340 157 22 81 1 3
98 1284 383 170 399 0 394 400 401 14 340 529 400 ?334 170 338 5 397 -0 0 334 170
 22 81 1 400 1285 383 340 402 0 398 403 404 14 334 521 403 ?352 340 331 5 405 -0
 0 352 340 22 50 397 199 0 340 392 405 0 +0 0 0 0 0 1 1 0 0 50 405 260 0 334 397
 406 0 +363539716596383e-31 .004400568867971555 .0035 -82611982110385e-28 -1 0 1
 -82611982110385e-28 0 50 406 261 0 329 405 407 0 +-.00422669760880758 -.0036417
68261551075 .0035 .757581594310134 .652740475198616 0 -.652740475198616 .7575815
94310135 0 14 329 239 408 ?345 325 327 5 406 +0 0 345 325 22 50 407 262 0 325 40
6 409 0 +-.00273845553921679 .00587263685535819 .0035 .422618261740697 -.9063077
87036651 0 .906307787036651 .422618261740697 0 14 325 241 410 ?329 322 323 5 407
 +0 0 329 322 22 50 409 263 0 322 407 411 0 +-.0104 0 .0035 1 0 0 0 0 -1 14 322
 243 412 ?325 316 320 5 409 +0 0 325 316 22 50 411 264 0 316 409 413 0 +0 .0015
 .0035 0 1 0 0 0 1 14 316 245 414 ?322 369 315 5 411 +0 0 322 369 22 50 413 265
 0 369 411 415 0 +.0104 0 .0035 1 0 0 0 0 -1 14 369 247 416 ?316 365 367 5 413 -
0 0 316 365 22 50 415 266 0 365 413 417 0 +.00273845553921676 .00587263685535817
 .0035 .4226182617406935 .906307787036653 0 -.906307787036653 .4226182617406935
 0 14 365 249 418 ?369 358 364 5 415 -0 0 369 358 22 50 417 267 0 358 415 419 0
 +.004226697608807575 -.003641768261551075 .0035 .757581594310134 -.652740475198
616 0 .652740475198616 .757581594310135 0 14 358 251 420 ?365 352 355 5 417 -0 0
 365 352 22 50 419 268 0 352 417 390 0 +0 .004400568867971645 .0035 0 1 0 0 0 1
 14 352 401 421 ?358 334 351 5 419 +0 0 358 334 22 50 390 270 0 157 419 382 0 +0
 -.0015 .0035 0 1 0 0 0 1 81 1 421 1294 383 352 422 0 420 423 424 80 255 1 383 4
25 426 9000 1 1 1 1 1 1 1 1 0 FFFFTFTFFFFFFF1 81 1 422 1205 427 352 0 421 428 42
9 430 81 1 420 1293 383 358 429 0 418 421 431 81 1 423 1295 383 345 432 0 421 43
3 434 82 255 1 424 -313196216 14 345 461 423 ?337 329 344 5 396 +0 0 337 329 22
 81 1 432 1213 427 345 0 423 435 436 437 81 1 433 1296 383 337 436 0 423 438 439
 82 1 434 -325451448 14 337 601 433 ?372 345 335 5 440 +0 0 372 345 22 81 1 436
 1214 427 337 0 433 432 441 442 81 1 438 1297 383 372 441 0 433 443 444 82 1 439
 -288489142 14 372 721 438 ?179 337 371 5 445 -0 0 179 337 22 81 1 441 1215 427
 372 0 438 436 446 447 81 1 443 1298 383 179 446 0 438 448 449 82 1 444 -2462839
53 14 179 729 443 ?379 372 162 5 450 -0 0 379 372 22 81 1 446 1216 427 179 0 443
 441 451 452 81 1 448 1299 383 17 453 0 443 454 455 82 1 449 -246808241 14 17 10
05 448 ?311 378 312 5 6 +0 0 311 378 22 81 1 453 1220 427 17 0 448 456 457 458 8
1 1 454 1300 383 311 457 0 448 459 460 82 1 455 -209780401 14 311 1007 454 ?461
 17 308 5 18 +0 0 461 17 22 81 1 457 1221 427 311 0 454 453 462 463 81 1 459 130
1 383 461 462 0 454 0 464 82 1 460 -210960049 14 461 1009 459 ?0 311 303 5 465 +
0 0 0 311 22 81 1 462 1222 427 461 0 459 457 0 466 82 1 464 -212467377 80 1 427
 0 467 8001 0 0 0 0 3 5 0 0 0 FFFFTFTFFFFFFF2 83 255 3 466 .792156862745098 .819
607843137255 .933333333333333 79 255 15 467 SDL/TYSA_COLOUR15 303 1010 0 302 461
 0 50 465 1033 0 461 387 18 0 -.004355393218813455 .0015 .00785539321881344 -.5
 -.70710678118655 -.5 .707106781186546 0 -.707106781186549 50 387 918 0 378 382
 465 0 +.006125 0 .0075 .707106781186549 0 .707106781186546 0 -1 0 50 18 1032 0
 311 465 6 0 -0 5e-4 .0075 0 -.70710678118655 -.707106781186545 -1 0 0 83 3 463
 .792156862745098 .819607843137255 .933333333333333 81 1 456 1219 427 378 0 385
 384 453 468 83 3 458 .792156862745098 .819607843137255 .933333333333333 81 1 38
5 1280 383 378 456 0 381 388 469 81 1 384 1218 427 380 0 381 451 456 470 83 3 46
8 .792156862745098 .819607843137255 .933333333333333 81 1 451 1217 427 379 0 388
 446 384 471 83 3 470 .792156862745098 .819607843137255 .933333333333333 81 1 38
8 1281 383 379 451 0 385 391 472 83 3 471 .792156862745098 .819607843137255 .933
333333333333 82 1 472 -253623985 82 1 469 -224788145 83 3 452 .792156862745098 .
819607843137255 .933333333333333 50 450 747 0 179 389 445 0 +-.008125 .0015 .007
5 1 0 0 0 0 -1 50 389 750 0 379 0 450 0 +0 0 .0075 0 0 1 1 0 0 50 445 745 0 372
 450 440 0 +.008125 .0015 .0075 -1 0 0 0 0 1 50 440 614 0 337 445 396 0 +-.01149
6 3378561998992155e-33 0 -1 293992581866624e-30 0 -293992581866624e-30 -1 0 50 3
96 474 0 345 440 392 0 +.0115 0 0 1 0 0 0 0 -1 83 3 447 .792156862745098 .819607
843137255 .933333333333333 83 3 442 .792156862745098 .819607843137255 .933333333
333333 81 1 435 1212 427 329 0 408 473 432 474 83 3 437 .792156862745098 .819607
843137255 .933333333333333 81 1 408 1287 383 329 435 0 403 410 475 81 1 473 1211
 427 325 0 410 476 435 477 83 3 474 .792156862745098 .819607843137255 .933333333
333333 81 1 410 1288 383 325 473 0 408 412 478 81 1 476 1210 427 322 0 412 479 4
73 480 83 3 477 .792156862745098 .819607843137255 .933333333333333 81 1 412 1289
 383 322 476 0 410 414 481 81 1 479 1209 427 316 0 414 482 476 483 83 3 480 .792
156862745098 .819607843137255 .933333333333333 81 1 414 1290 383 316 479 0 412 4
16 484 81 1 482 1208 427 369 0 416 485 479 486 83 3 483 .792156862745098 .819607
843137255 .933333333333333 81 1 416 1291 383 369 482 0 414 418 487 81 1 485 1207
 427 365 0 418 429 482 488 83 3 486 .792156862745098 .819607843137255 .933333333
333333 81 1 418 1292 383 365 485 0 416 420 489 81 1 429 1206 427 358 0 420 422 4
85 490 83 3 488 .792156862745098 .819607843137255 .933333333333333 83 3 490 .792
156862745098 .819607843137255 .933333333333333 82 1 489 -363724474 82 1 487 -364
052154 82 1 484 -364183217 82 1 481 -364314298 82 1 478 -364445370 81 1 403 1286
 383 334 428 0 400 408 491 82 1 475 -364641978 81 1 428 1204 427 334 0 403 402 4
22 492 82 1 491 -278068918 81 1 402 1203 427 340 0 400 399 428 493 83 3 492 .792
156862745098 .819607843137255 .933333333333333 81 1 399 1202 427 170 0 398 494 4
02 495 83 3 493 .792156862745098 .819607843137255 .933333333333333 81 1 494 1201
 427 157 0 394 393 399 496 83 3 495 .792156862745098 .819607843137255 .933333333
333333 81 1 394 1283 383 157 494 0 391 398 497 81 1 393 1200 427 15 0 391 0 494
 498 83 3 496 .792156862745098 .819607843137255 .933333333333333 83 3 498 .79215
6862745098 .819607843137255 .933333333333333 82 1 497 -275775154 82 1 431 -36346
2330 83 3 430 .792156862745098 .819607843137255 .933333333333333 79 14 426 SWEnt
Unchanged82 1 404 -277282486 82 1 401 -276364980 82 1 395 -241630900 82 1 386 -2
26754225 17 304 0 303 53 302 40 39 298 0 0 -17 53 0 303 305 304 51 44 296 0 295
 -17 305 0 303 302 53 45 295 293 0 0 -17 44 0 371 62 370 40 53 296 0 374 +17 295
 0 315 70 47 51 305 293 0 370 +17 47 0 315 295 50 45 309 289 0 306 +17 306 0 308
 309 30 45 302 301 0 305 -16 177 664 0 ?133 159 258 178 159 159 1 17 248 0 338 3
68 251 97 317 246 0 0 +17 251 0 338 248 254 94 321 249 0 0 +17 254 0 338 251 257
 91 324 252 0 0 +17 257 0 338 254 332 88 328 255 0 0 +17 368 0 338 366 248 100 2
45 243 0 0 -17 366 0 338 356 368 103 102 241 0 0 -17 356 0 338 238 366 106 105 2
39 0 353 -17 238 0 338 341 356 137 353 236 0 0 +17 105 0 355 357 108 103 356 239
 0 275 +17 275 0 364 102 359 103 357 273 0 366 +17 142 0 335 79 145 140 158 197
 0 169 +30 185 759 0 181 0 187 0 +-.008125 -.0015 .0075 1 0 0 19 16 285 0 1 0 9
 5 S0 74 4 CI16 index_map_offset0 0 1 dCCZ20 14 3 0 0 459 2 462 0 0 0 0 0 0 0 0
 0 0 0 0 0 0 0 0 0 80 2 12 499 500 8004 0 0 0 0 3 5 0 0 0 FFTFFFFFFFFFFF2 3 83 1
 13 1 79 16 500 SDL/TYSA_DENSITY1 0 
